<svg width="200" height="48" viewBox="0 0 200 48" fill="none" xmlns="http://www.w3.org/2000/svg">
<path d="M85.8679 37.65H76.4538V19.8532C76.4538 17.4613 76.1905 15.7277 74.8958 15.7277C73.601 15.7277 73.3377 17.4613 73.3377 19.8532V37.65H63.9236V19.8532C63.9236 17.4613 63.6603 15.7277 62.3656 15.7277C61.0709 15.7277 60.8075 17.4613 60.8075 19.8532V37.65H51.3935V10.483H60.8075V13.2919C61.9925 11.273 64.0992 9.95633 66.7983 9.95633C69.3658 9.95633 71.6041 10.878 73.0086 13.5552C74.2374 11.0974 76.5635 9.95633 79.1091 9.95633C82.7738 9.95633 85.9118 12.2824 85.9118 18.1635V37.65H85.8679ZM38.6877 24.0884C37.4369 25.1198 35.5497 26.217 35.5497 29.5306C35.5497 31.747 36.1203 32.6467 37.1297 32.6467C38.1391 32.6467 38.7097 31.747 38.7097 29.5306V24.0884H38.6877ZM37.3711 9.95633C43.6252 9.95633 48.1238 12.1288 48.1238 18.9315V37.65H38.7097V35.302C37.7002 36.9039 35.8789 38.1547 32.9383 38.1547C30.9195 38.1547 26.2014 37.4525 26.2014 30.4084C26.2014 20.7529 38.7097 24.0665 38.7097 18.1854C38.7097 15.7935 38.1391 14.806 37.1297 14.806C36.1203 14.806 35.5497 15.7935 35.5497 18.1854V19.6776H26.5964V18.9535C26.6184 12.1288 31.117 9.95633 37.3711 9.95633ZM101.734 26.7217H110.687C110.555 34.6436 106.013 38.1328 99.7147 38.1328C93.3289 38.1328 88.7206 34.5559 88.7206 26.3926V21.6965C88.7206 13.5552 93.3289 9.95633 99.7147 9.95633C106.101 9.95633 110.709 13.5332 110.709 21.6965V24.5493H98.1567V29.2015C98.1567 31.5934 98.4639 33.327 99.9561 33.327C101.448 33.327 101.756 31.5934 101.756 29.2015V26.7217H101.734ZM101.273 18.9096C101.273 16.5177 101.009 14.7841 99.7147 14.7841C98.42 14.7841 98.1567 16.5177 98.1567 18.9096V20.336H101.295V18.9096H101.273ZM23.4804 16.3202V14.9596C23.4804 5.54554 17.9065 3 11.7402 3C5.57384 3 0 6.33553 0 15.7496V25.4051C0 31.725 2.6772 38.1547 9.85297 38.1547C13.1446 38.1547 15.2513 36.5747 16.1729 35.0606L16.919 37.6719H23.4804V19.6557H12.0913V25.449H14.6368V26.6779C14.6368 29.6184 14.2199 32.3395 12.3766 32.3395C10.5113 32.3395 10.1163 29.6403 10.1163 26.6779V14.3013C10.1163 11.4266 10.3138 8.79329 11.7402 8.79329C13.1666 8.79329 13.3641 11.4266 13.3641 14.3013V16.3202H23.4804ZM151.306 37.0794V33.305C150.867 33.5684 150.472 33.6781 150.055 33.6781C148.541 33.6781 148.233 32.142 148.233 30.3864V14.1038H151.328V10.5049H148.233V6.8183H138.819V10.5049H136.932V14.1038H138.819V30.8034C138.819 35.6311 141.453 38.1328 145.907 38.1328C148.168 38.1328 150.033 37.628 151.306 37.0794ZM125.785 14.0819H135.133V12.6335C135.133 5.96248 130.678 3 124.073 3C117.753 3 113.013 6.53303 113.013 12.7213C113.013 24.3079 126.136 21.7623 126.136 29.6184C126.136 31.6812 125.324 32.3614 124.336 32.3614C123.349 32.3614 122.537 31.6812 122.537 29.6184V26.7656H113.079V28.1262C113.079 35.1045 117.643 38.1767 124.446 38.1767C130.963 38.1767 135.813 34.5559 135.813 28.0604C135.813 15.1352 122.317 18.7121 122.317 11.5583C122.317 9.4955 123.151 8.81523 124.051 8.81523C124.929 8.81523 125.785 9.4955 125.785 11.5583V14.0819ZM165.131 18.9096C165.131 16.5177 164.867 14.7841 163.573 14.7841C162.278 14.7841 161.993 16.5177 161.993 18.9096V29.1795C161.993 31.5714 162.256 33.305 163.573 33.305C164.867 33.305 165.131 31.5714 165.131 29.1795V18.9096ZM163.573 9.97828C169.958 9.97828 174.567 13.5552 174.567 21.7185V26.4145C174.567 34.5559 169.958 38.1547 163.573 38.1547C157.187 38.1547 152.578 34.5778 152.578 26.4145V21.7185C152.578 13.5552 157.187 9.97828 163.573 9.97828ZM189.971 19.8532C189.971 17.4613 189.708 15.7277 188.413 15.7277C187.119 15.7277 186.855 17.4613 186.855 19.8532V28.2359C186.855 30.6278 187.119 32.3614 188.413 32.3614C189.708 32.3614 189.971 30.6278 189.971 28.2359V19.8532ZM192.363 9.95633C196.818 9.95633 199.386 13.5552 199.386 21.6965V26.3926C199.386 34.5339 196.818 38.1328 192.363 38.1328C190.235 38.1328 188.04 37.0794 186.833 35.2361V44.4308H177.419V10.483H186.833V12.853C188.04 11.0316 190.235 9.95633 192.363 9.95633Z" fill="#212322"/>
</svg>
